<svg viewBox="0 0 397.28 303.52" xmlns="http://www.w3.org/2000/svg" xmlns:xlink="http://www.w3.org/1999/xlink"><linearGradient id="a" gradientUnits="userSpaceOnUse" x1="149.02" x2="172.24" y1="158.26" y2="158.26"><stop offset="0" stop-color="#d9d9d9"/><stop offset=".01" stop-color="#dadada"/><stop offset=".12" stop-color="#ebebeb"/><stop offset=".26" stop-color="#f6f6f6"/><stop offset=".45" stop-color="#fdfdfd"/><stop offset="1" stop-color="#fff"/></linearGradient><radialGradient id="b" cx="235.05" cy="2151.63" gradientTransform="matrix(.88 0 0 .82 38.2 -1615.73)" gradientUnits="userSpaceOnUse" r="172.9"><stop offset="0" stop-color="#70e1d0" stop-opacity=".5"/><stop offset=".16" stop-color="#6ad3c9" stop-opacity=".45"/><stop offset=".44" stop-color="#59adb7" stop-opacity=".32"/><stop offset=".81" stop-color="#3f719a" stop-opacity=".12"/><stop offset="1" stop-color="#304e89" stop-opacity="0"/></radialGradient><linearGradient id="c" gradientTransform="matrix(.83195412 .55484443 -.55484443 .83195412 162.970291 -97.060139)" gradientUnits="userSpaceOnUse" x1="322.08" x2="92.38" y1="220.47" y2="220.47"><stop offset="0" stop-color="#08aeea" stop-opacity="0"/><stop offset="1" stop-color="#2af598"/></linearGradient><linearGradient id="d" x1="280.13" x2="148.61" xlink:href="#c" y1="212.07" y2="248.47"/><linearGradient id="e" x1="279.38" x2="147.85" xlink:href="#c" y1="209.34" y2="245.74"/><linearGradient id="f" x1="278.62" x2="147.1" xlink:href="#c" y1="206.61" y2="243.01"/><linearGradient id="g" x1="277.87" x2="146.34" xlink:href="#c" y1="203.88" y2="240.28"/><linearGradient id="h" x1="277.11" x2="145.59" xlink:href="#c" y1="201.15" y2="237.55"/><linearGradient id="i" gradientTransform="matrix(.83398214 .55179144 -.55179144 .83398214 164.189994 -81.200182)" x1="322.32" x2="69.64" xlink:href="#c" y1="175.89" y2="311.13"/><linearGradient id="j" gradientTransform="matrix(.83398214 .55179144 -.55179144 .83398214 156.490006 -106.789831)" x1="320.29" x2="67.6" xlink:href="#c" y1="172.09" y2="307.33"/><linearGradient id="k" gradientTransform="matrix(.83398214 .55179144 -.55179144 .83398214 169.340261 -74.62006)" x1="325.4" x2="72.72" xlink:href="#c" y1="181.64" y2="316.88"/><linearGradient id="l" gradientTransform="matrix(.83398214 .55179144 -.55179144 .83398214 162.580192 -97.089704)" x1="323.61" x2="70.93" xlink:href="#c" y1="178.3" y2="313.55"/><linearGradient id="m" gradientTransform="matrix(.83398214 .55179144 -.55179144 .83398214 157.139982 -115.190147)" x1="322.18" x2="69.49" xlink:href="#c" y1="175.62" y2="310.86"/><linearGradient id="n" gradientTransform="matrix(.83398214 .55179144 -.55179144 .83398214 170.409985 -81.719487)" x1="327.4" x2="74.72" xlink:href="#c" y1="185.37" y2="320.62"/><linearGradient id="o" gradientTransform="matrix(.83398214 .55179144 -.55179144 .83398214 161.219711 -112.239891)" x1="324.97" x2="72.29" xlink:href="#c" y1="180.84" y2="316.08"/><linearGradient id="p" gradientTransform="matrix(.83398214 .55179144 -.55179144 .83398214 175.780069 -74.429967)" x1="330.54" x2="77.86" xlink:href="#c" y1="191.25" y2="326.49"/><linearGradient id="q" gradientTransform="matrix(.92307602 -.38461756 .38461756 .92307602 -14.520103 116.049932)" x1="348.13" x2="183.46" xlink:href="#c" y1="129.47" y2="40.8"/><linearGradient id="r" x1="290.01" x2="211.51" xlink:href="#c" y1="133.78" y2="17.78"/><linearGradient id="s" x1="270.36" x2="248.98" xlink:href="#c" y1="86.33" y2="64.08"/><linearGradient id="t" x1="272.69" x2="257.31" xlink:href="#c" y1="85.84" y2="67.34"/><linearGradient id="u" x1="302.76" x2="224.26" xlink:href="#c" y1="125.15" y2="9.15"/><linearGradient id="v" x1="307.01" x2="228.51" xlink:href="#c" y1="122.28" y2="6.28"/><linearGradient id="w" gradientTransform="matrix(.92166012 -.38799822 .38799822 .92166012 -12.83004 116.789956)" x1="293.56" x2="272.56" xlink:href="#c" y1="128.44" y2="53.94"/><linearGradient id="x" gradientTransform="matrix(.92166012 -.38799822 .38799822 .92166012 -12.389897 103.999874)" x1="266.37" x2="245.37" xlink:href="#c" y1="136.1" y2="61.6"/><linearGradient id="y" gradientTransform="matrix(.92050485 -.39073113 .39073113 .92050485 -16.655244 124.194861)" x1="305.21" x2="284.21" xlink:href="#c" y1="125.15" y2="50.65"/><linearGradient id="z" gradientTransform="matrix(.92166012 -.38799822 .38799822 .92166012 -17.139925 116.940152)" x1="289.11" x2="268.11" xlink:href="#c" y1="129.69" y2="55.19"/><linearGradient id="A" gradientTransform="matrix(.92166012 -.38799822 .38799822 .92166012 -17.190011 106.560088)" x1="266.58" x2="245.58" xlink:href="#c" y1="136.04" y2="61.54"/><linearGradient id="B" gradientTransform="matrix(.96077915 .27731465 -.27731465 .96077915 33.089974 -31.189748)" x1="134.7" x2="120.64" xlink:href="#a" y1="126.41" y2="78.41"/><linearGradient id="C" gradientTransform="matrix(.96077915 .27731465 -.27731465 .96077915 13.050103 -91.539969)" x1="136.17" x2="122.11" xlink:href="#a" y1="277.55" y2="229.56"/><linearGradient id="D" x1="227.26" x2="207.18" xlink:href="#a" y1="267.35" y2="198.81"/><linearGradient id="E" x1="240.86" x2="224.61" xlink:href="#a" y1="106.36" y2="50.89"/><linearGradient id="F" gradientTransform="matrix(0 -1 1 0 170.23 495.18)" gradientUnits="userSpaceOnUse" x1="191.65" x2="483.75" y1="75.27" y2="75.27"><stop offset="0" stop-color="#304e89"/><stop offset=".04" stop-color="#33548c"/><stop offset=".09" stop-color="#3a6694"/><stop offset=".15" stop-color="#4782a2"/><stop offset=".21" stop-color="#58aab6"/><stop offset=".27" stop-color="#6ad4ca"/><stop offset=".7" stop-color="#72e7d3"/><stop offset=".78" stop-color="#74ebd5"/><stop offset=".79" stop-color="#6bd5ca"/><stop offset=".82" stop-color="#59acb7"/><stop offset=".86" stop-color="#4a8aa6"/><stop offset=".89" stop-color="#3f7099"/><stop offset=".93" stop-color="#365d90"/><stop offset=".96" stop-color="#32528b"/><stop offset="1" stop-color="#304e89"/></linearGradient><linearGradient id="G" gradientTransform="matrix(512 0 0 -512 -1186670.82 2731582.7)" gradientUnits="userSpaceOnUse" x1="2317.77" x2="2317.77" y1="5334.93" y2="5334.87"><stop offset="0" stop-color="#54c2e9"/><stop offset="1" stop-color="#1767ef"/></linearGradient><clipPath id="H"><path d="m166.33 151.07-5.59-1.49-10.74-2.88c-.6-.16-1.07.16-.9.79l2.9 10.86 3 11.09c.13.47.55.57.93.19l8.07-8.08 4.09-4.09 3.93-3.93c.46-.46.29-.88-.23-1s-5.46-1.46-5.46-1.46z"/></clipPath><linearGradient id="I" gradientUnits="userSpaceOnUse" x1="155.27" x2="160.7" y1="146.36" y2="168.17"><stop offset="0" stop-color="#00c5ff"/><stop offset="1" stop-color="#00e9fb"/></linearGradient><linearGradient id="J" gradientUnits="userSpaceOnUse" x1="148.54" x2="164.88" y1="145.99" y2="152.99"><stop offset="0" stop-color="#00d873"/><stop offset="1" stop-color="#00ec76"/></linearGradient><linearGradient id="K" gradientUnits="userSpaceOnUse" x1="155.64" x2="166.02" y1="169.59" y2="156.27"><stop offset="0" stop-color="#e51652"/><stop offset="1" stop-color="#fe3338"/></linearGradient><linearGradient id="L" gradientUnits="userSpaceOnUse" x1="164.34" x2="171.97" y1="155.13" y2="152.81"><stop offset="0" stop-color="#fdbc00"/><stop offset="1" stop-color="#fd0"/></linearGradient><ellipse cx="245.5" cy="143.46" fill="url(#b)" opacity=".5" rx="151.78" ry="143.46"/><rect fill="url(#c)" height="50.08" rx="3" transform="matrix(.83195412 -.55484443 .55484443 .83195412 -81.720458 171.179989)" width="126.1" x="178.65" y="195.43"/><path d="m188.76 232.85 2.59 1.57 2.76-1.24-.69 2.95 2.04 2.24-3.02.25-1.5 2.63-1.18-2.79-2.96-.62 2.29-1.97z" fill="url(#d)"/><path d="m196.89 227.67 2.59 1.57 2.76-1.25-.69 2.95 2.04 2.24-3.02.25-1.5 2.63-1.18-2.79-2.96-.61 2.29-1.98z" fill="url(#e)"/><path d="m205.02 222.48 2.59 1.57 2.76-1.25-.69 2.95 2.04 2.24-3.02.25-1.5 2.63-1.18-2.79-2.96-.61 2.29-1.98z" fill="url(#f)"/><path d="m213.15 217.29 2.59 1.57 2.76-1.25-.69 2.95 2.04 2.24-3.02.26-1.5 2.63-1.17-2.8-2.97-.61 2.29-1.98z" fill="url(#g)"/><path d="m221.28 212.1 2.59 1.57 2.76-1.25-.69 2.95 2.04 2.24-3.02.26-1.5 2.63-1.17-2.79-2.97-.62 2.29-1.98z" fill="url(#h)"/><path d="m188.12 230.68h57.83v3.12h-57.83z" fill="url(#i)" transform="matrix(.83398214 -.55179144 .55179144 .83398214 -92.119995 158.319951)"/><path d="m240.56 205.09h30.3v3.12h-30.3z" fill="url(#j)" transform="matrix(.83 -.55 .55 .83 -71.58 175.41)"/><path d="m193.29 242.55h30.8v3.12h-30.8z" fill="url(#k)" transform="matrix(.83398214 -.55179144 .55179144 .83398214 -100.049782 155.669818)"/><path d="m220 220.08h45.28v3.12h-45.28z" fill="url(#l)" transform="matrix(.83398214 -.55179144 .55179144 .83398214 -82.01985 170.679674)"/><path d="m262.01 201.99h15.98v3.12h-15.98z" fill="url(#m)" transform="matrix(.83398214 -.55179144 .55179144 .83398214 -67.490122 182.769943)"/><path d="m194.34 240.76h53.34v3.12h-53.34z" fill="url(#n)" transform="matrix(.83398214 -.55179144 .55179144 .83398214 -97.020032 162.18976)"/><path d="m240.47 210.24h53.34v3.12h-53.34z" fill="url(#o)" transform="matrix(.83398214 -.55179144 .55179144 .83398214 -72.520021 182.570134)"/><path d="m199.74 253.35h23.7v3.12h-23.7z" fill="url(#p)" transform="matrix(.83398214 -.55179144 .55179144 .83398214 -105.530432 159.069852)"/><g opacity=".8"><rect fill="url(#q)" height="50.08" rx="3" transform="matrix(.92307602 .38461756 -.38461756 .92307602 58.040308 -101.539761)" width="126.1" x="219.85" y="69.3"/><path d="m243.24 57.15.13 3.03 2.23 1.56-2.5 1.11-.74 2.93-1.88-2.37-3.02.21 1.67-2.52-1.13-2.81 2.91.81z" fill="url(#r)"/><path d="m252.06 61.04.13 3.03 2.57 1.6-2.83 1.06-.74 2.94-1.88-2.37-3.03.21 1.68-2.52-1.14-2.81 2.92.81z" fill="url(#s)"/><path d="m260.89 64.93.13 3.03 2.57 1.6-2.84 1.06-.73 2.94-1.89-2.37-3.02.21 1.67-2.52-1.13-2.81 2.92.81z" fill="url(#t)"/><path d="m269.72 68.82.13 3.03 2.57 1.6-2.84 1.06-.74 2.94-1.88-2.37-3.02.21 1.67-2.52-1.13-2.81 2.91.81z" fill="url(#u)"/><path d="m278.54 72.71.13 3.03 2.57 1.6-2.84 1.06-.73 2.94-1.88-2.37-3.03.21 1.68-2.53-1.14-2.81 2.92.82z" fill="url(#v)"/><path d="m228.53 88.62h108.5v3.12h-108.5z" fill="url(#w)" transform="matrix(.92166012 .38799822 -.38799822 .92166012 57.150017 -102.660031)"/><path d="m228.98 81.11h44.66v3.12h-44.66z" fill="url(#x)" transform="matrix(.92166012 .38799822 -.38799822 .92166012 51.769944 -91.039847)"/><path d="m272.9 101.14h51.96v3.12h-51.96z" fill="url(#y)" transform="matrix(.92166012 .38799822 -.38799822 .92166012 63.26981 -107.929867)"/><path d="m224.22 99.37h113.56v3.12h-113.56z" fill="url(#z)" transform="matrix(.92166012 .38799822 -.38799822 .92166012 61.180083 -101.12996)"/><path d="m224.19 94.28h62.11v3.12h-62.11z" fill="url(#A)" transform="matrix(.92166012 .38799822 -.38799822 .92166012 57.19002 -91.540159)"/></g><rect fill="url(#B)" height="50.08" rx="3" transform="matrix(.93383039 -.3577161 .3577161 .93383039 -28.440024 52.369869)" width="126.1" x="64.31" y="78.02"/><path d="m72.99 103.45 2.18 2.1 2.97-.6-1.32 2.72 1.49 2.64-3-.42-2.05 2.23-.53-2.98-2.75-1.25 2.67-1.43zm9.08-3.26 2.18 2.1 2.97-.61-1.33 2.73 1.49 2.63-3-.42-2.04 2.24-.53-2.99-2.76-1.25 2.68-1.43zm9.07-3.27 2.18 2.1 2.97-.6-1.32 2.72 1.49 2.63-3-.41-2.04 2.23-.53-2.98-2.76-1.26 2.67-1.42zm9.08-3.27 2.18 2.1 2.97-.6-1.33 2.72 1.49 2.64-3-.42-2.04 2.23-.53-2.98-2.76-1.25 2.68-1.43zm9.07-3.26 2.18 2.1 2.97-.61-1.32 2.73 1.49 2.63-3-.42-2.04 2.24-.53-2.98-2.76-1.26 2.67-1.42z" fill="#f5a623"/><path d="m73.1 114.66h17.59v3.12h-17.59z" fill="#d9d9d9" transform="matrix(.93519703 -.35412782 .35412782 .93519703 -35.849817 36.540041)"/><path d="m89.38 95.57h85.63v3.12h-85.63z" fill="#d9d9d9" transform="matrix(.93519703 -.35412782 .35412782 .93519703 -25.829858 53.119961)"/><path d="m74.63 117.71h28.31v3.12h-28.31z" fill="#d9d9d9" transform="matrix(.93519703 -.35412782 .35412782 .93519703 -36.479687 39.169995)"/><path d="m102.27 101.85h56.77v3.12h-56.77z" fill="#d9d9d9" transform="matrix(.93519703 -.35412782 .35412782 .93519703 -28.160095 52.96995)"/><path d="m75.49 117.13h59.61v3.12h-59.61z" fill="#d9d9d9" transform="matrix(.93519703 -.35412782 .35412782 .93519703 -35.209729 44.989917)"/><path d="m133.01 97.77h46.79v3.12h-46.79z" fill="#d9d9d9" transform="matrix(.93519703 -.35412782 .35412782 .93519703 -25.040098 61.829747)"/><path d="m76.18 115.5h96.79v3.12h-96.79z" fill="#d9d9d9" transform="matrix(.93519703 -.35412782 .35412782 .93519703 -33.379753 51.710162)"/><rect fill="url(#C)" height="50.08" rx="3" transform="matrix(.95946168 .28183912 -.28183912 .95946168 55.790152 -11.20012)" width="126.1" x="3.78" y="163.28"/><path d="m23.36 155.67.46 2.99 2.72 1.32-2.7 1.37-.41 3-2.13-2.16-2.98.54 1.38-2.69-1.43-2.67 2.99.49z" fill="#f5a623"/><path d="m32.55 158.58.47 2.99 2.72 1.32-2.7 1.36-.41 3-2.14-2.15-2.98.54 1.39-2.7-1.43-2.66 2.99.48zm9.2 2.9.46 3 2.73 1.31-2.71 1.37-.41 3-2.13-2.15-2.98.53 1.39-2.69-1.43-2.67 2.99.49zm9.2 2.91.46 2.99 2.73 1.32-2.71 1.36-.41 3-2.13-2.15-2.98.54 1.39-2.69-1.44-2.67 2.99.48zm9.2 2.9.46 3 2.72 1.32-2.7 1.36-.41 3-2.13-2.15-2.99.53 1.39-2.69-1.43-2.67 2.99.49z" fill="#ececec"/><g fill="#d9d9d9"><path d="m12.64 178.31h78.17v3.12h-78.17z" transform="matrix(.95842224 .28535383 -.28535383 .95842224 53.490128 -7.280035)"/><path d="m90.45 191.28h9.64v3.12h-9.64z" transform="matrix(.95842224 .28535383 -.28535383 .95842224 59.01004 -19.169947)"/><path d="m12.02 177.3h35.59v3.12h-35.59z" transform="matrix(.95837242 .2855211 -.2855211 .95837242 52.299931 -1.070146)"/><path d="m48.17 189.42h44.66v3.12h-44.66z" transform="matrix(.95837242 .2855211 -.2855211 .95837242 57.449979 -12.180017)"/><path d="m93.5 199.63h22.39v3.12h-22.39z" transform="matrix(.95837242 .2855211 -.2855211 .95837242 61.789996 -21.519941)"/><path d="m10.09 185.22h55.47v3.12h-55.47z" transform="matrix(.96 .29 -.29 .96 54.89 -3.03)"/><path d="m65.18 201.63h55.47v3.12h-55.47z" transform="matrix(.96 .29 -.29 .96 61.86 -18.07)"/><path d="m8.9 188.19h40.59v3.12h-40.59z" transform="matrix(.95837242 .2855211 -.2855211 .95837242 55.379979 -.440013)"/></g><path d="m245.5 211.54v-23.7l-67.65 45.16a3 3 0 0 0 -.83 4.16l24.46 36.67a3 3 0 0 0 4.16.83l39.86-26.66z" fill="url(#D)"/><path d="m188.76 232.85 2.59 1.57 2.76-1.24-.69 2.95 2.04 2.24-3.02.25-1.5 2.63-1.18-2.79-2.96-.62 2.29-1.97zm8.13-5.18 2.59 1.57 2.76-1.25-.69 2.95 2.04 2.24-3.02.25-1.5 2.63-1.18-2.79-2.96-.61 2.29-1.98zm8.13-5.19 2.59 1.57 2.76-1.25-.69 2.95 2.04 2.24-3.02.25-1.5 2.63-1.17-2.79-2.97-.61 2.29-1.98zm8.13-5.19 2.59 1.57 2.76-1.25-.69 2.95 2.04 2.24-3.02.26-1.5 2.63-1.17-2.8-2.97-.61 2.29-1.98z" fill="#f5a623"/><path d="m221.28 212.1 2.59 1.57 2.76-1.25-.69 2.95 2.04 2.24-3.02.26-1.5 2.63-1.17-2.79-2.97-.62 2.29-1.98z" fill="#ececec"/><path d="m188.12 230.68h57.83v3.12h-57.83z" fill="#d9d9d9" transform="matrix(.83398214 -.55179144 .55179144 .83398214 -92.119995 158.319951)"/><path d="m245.5 215.28-1.56 1.03-1.72-2.6 3.28-2.17z" fill="#d9d9d9"/><path d="m193.29 242.55h30.8v3.12h-30.8z" fill="#d9d9d9" transform="matrix(.83398214 -.55179144 .55179144 .83398214 -100.049885 155.679476)"/><path d="m245.5 217.88v3.74l-20.88 13.81-1.72-2.6z" fill="#d9d9d9"/><path d="m194.34 240.76h53.34v3.12h-53.34z" fill="#d9d9d9" transform="matrix(.83398214 -.55179144 .55179144 .83398214 -97.020032 162.18976)"/><path d="m245.5 224.24v3.18l-1.46-2.21z" fill="#d9d9d9"/><path d="m199.75 253.35h23.7v3.12h-23.7z" fill="#d9d9d9" transform="matrix(.83398214 -.55179144 .55179144 .83398214 -105.530432 159.069852)"/><path d="m245.61 61.74-.11.2v43.94l-27.66-11.52a3 3 0 0 1 -1.62-3.93l16.95-40.68a3 3 0 0 1 3.93-1.62l8.4 3.5v9.88z" fill="url(#E)"/><path d="m245.5 61.94-2.4.9-.73 2.94-1.89-2.37-3.02.21 1.67-2.53-1.13-2.81 2.92.81 2.32-1.94.13 3.03 2.13 1.33z" fill="#f5a623"/><path d="m245.5 72.78v3.39l-13.32-5.61 1.21-2.88zm0 5.74v3.39l-15.37-6.47 1.21-2.88zm0 5.76v3.39l-17.43-7.34 1.21-2.88zm0 5.76v3.38l-19.48-8.2 1.21-2.87z" fill="#d9d9d9"/><path d="m245.5 303.52v-292.09" fill="none" stroke="url(#F)" stroke-miterlimit="10" stroke-width=".61"/><path d="m154.9 203.19q6.65.25 13.3.61l-2.2 11.35c-4.32-.81-8.64-1.58-13-2.39q.92-4.79 1.84-9.56z" fill="#fff"/><path d="m143.66 202.62c3.34.12 6.68.32 10 .54l-1.8 9.41c-3.25-.63-6.52-1.2-9.77-1.84l1.56-8.11z" fill="#fff"/><path d="m141.91 211.71c3.25.61 6.5 1.29 9.75 1.91-.6 3.15-1.2 6.29-1.81 9.44-3.16-1.11-6.33-2.15-9.5-3.22z" fill="#fff"/><path d="m152.81 213.94 13 2.49q-1.08 5.66-2.18 11.32c-4.18-1.47-8.39-2.9-12.59-4.32z" fill="#fff"/><path d="m211.53 54a5.79 5.79 0 0 1 1.88-5.28 6 6 0 0 0 -5.06-1.72c-2.1.21-3.64 1.84-4.62 2s-2.73-.68-4.36-.36a6.27 6.27 0 0 0 -4.66 4.08c-1.54 4.25 1.12 9.68 3.84 12.43 1.33 1.34 2.9 2.85 4.55 2.49s2-1.42 4-1.76 2.66.6 4.34.27 2.53-2.06 3.31-3.78a14 14 0 0 0 1.12-3.9 5.65 5.65 0 0 1 -4.34-4.47zm-4.83-8.8a5.63 5.63 0 0 0 .6-4.26 5.74 5.74 0 0 0 -3.38 2.57 5.36 5.36 0 0 0 -.65 4.14 4.75 4.75 0 0 0 3.43-2.45z" fill="#fff"/><rect fill="url(#G)" height="32.5" rx="9.39" transform="matrix(.99842122 -.05617002 .05617002 .99842122 -6.279991 1.760016)" width="32.5" x="11.98" y="96.33"/><path d="m21.41 112.93-4.62.26.14 2.46 3.2-.18zm2.73-4.38-5 9.58 2.38 1.2 4.87-9.65zm-5.2 10.01-.71 4.37 3-3.13-2.33-1.25zm8.36-10.56c.43-1.21-1.63-2.14-2.35-1l-.55 1 2.28 1.15zm8.42 5.92-2.16 1.42 1.21 1.81 2.15-1.41zm-7.21-10.92c-.81-.73-2.5.37-2.06 1.41 2.24 3.42 6.77 10.24 6.77 10.24l2.05-1.34s-4.49-6.84-6.76-10.31zm8.72 13.51-2 1.28a4.8 4.8 0 0 0 2.05 2.39c.61.18 1.33 2.26 1.35 1.12.24-1.67.18-3.77-1.4-4.79zm-11.78-3.75-1.31 2.54 8.41-.47-1.55-2.38zm11.3 1.71 3.05-.17-.14-2.4-4.5.25z" fill="#fff"/><path d="m229.91 156.07a1.93 1.93 0 0 0 -.6.08 31.22 31.22 0 0 1 -9.42 1.22 18.2 18.2 0 0 1 -6.07-1.2 30.48 30.48 0 0 1 -6.49-3.68c-.7-.49-1.38-1-2.08-1.48a.77.77 0 0 0 -1 .07.74.74 0 0 0 .09 1 37.65 37.65 0 0 0 4.69 4.5 17.09 17.09 0 0 0 8.28 3.64c.85 0 1.7.09 2.55.09a22.18 22.18 0 0 0 8.09-1.52c.81-.32 1.59-.72 2.37-1.11a.8.8 0 0 0 .45-.92.85.85 0 0 0 -.86-.69zm4-2.46c-.5-.19-1-.3-1.53-.44a7.55 7.55 0 0 0 -2.49.12 9.21 9.21 0 0 0 -1.48.59.61.61 0 0 0 .3 1.15h1.26c.65 0 1.3.13 2 .21.26 0 .31.21.24.43a10.43 10.43 0 0 1 -.39 1.07c-.28.61-.61 1.21-.89 1.82a.57.57 0 0 0 .49.83 1.09 1.09 0 0 0 .66-.18 6.41 6.41 0 0 0 2.55-4.5.9.9 0 0 0 -.73-1.1z" fill="#f39619"/><path d="m213.05 150.88a7.25 7.25 0 0 0 2.68.76 7.4 7.4 0 0 0 5.37-1.2l1.08-.77c.11.19.21.35.29.52a9 9 0 0 0 1.43 2.07.86.86 0 0 0 1.21.17l3.13-2a.65.65 0 0 0 .28-.83 2.32 2.32 0 0 0 -.26-.49 5 5 0 0 1 -.81-3.67c.3-2.09.55-4.18.81-6.27.11-.88.22-1.75.25-2.63a4.82 4.82 0 0 0 -1.55-3.88 8.41 8.41 0 0 0 -3.29-1.81 15.53 15.53 0 0 0 -6-.32 6.54 6.54 0 0 0 -5.29 4.57c-.14.43.06.74.55.86 1.06.26 2.11.52 3.16.8.66.18.88.05 1.18-.56a3.46 3.46 0 0 1 .74-1.08 3.23 3.23 0 0 1 3.28-.66 2.24 2.24 0 0 1 1.74 2.29c0 .68-.11 1.37-.17 2.05 0 .19-.15.18-.29.17-1.15 0-2.3-.07-3.44-.08a12.92 12.92 0 0 0 -4.3.64 6.15 6.15 0 0 0 -3.77 3.25 7.38 7.38 0 0 0 -.63 4.32 5 5 0 0 0 2.62 3.78zm6.91-9c.69 0 1.39.05 2.09.07.29 0 .41.11.34.42s-.08.57-.11.86a7.64 7.64 0 0 1 -.81 2.94 3.76 3.76 0 0 1 -2.52 2 2.31 2.31 0 0 1 -2.89-2.26c-.06-2.55 1.44-3.96 3.94-4.06z" fill="#fff"/><rect height="31.75" rx="9.59" transform="matrix(.96178911 -.27379136 .27379136 .96178911 -36.64006 49.940064)" width="31.75" x="144.76" y="140.39"/><path d="m166.33 151.07-5.59-1.49-10.74-2.88c-.6-.16-1.07.16-.9.79l2.9 10.86 3 11.09c.13.47.55.57.93.19l8.07-8.08 4.09-4.09 3.93-3.93c.46-.46.29-.88-.23-1s-5.46-1.46-5.46-1.46z" fill="url(#a)"/><g clip-path="url(#H)"><path d="m148.78 146.46 3.19 11.89 3.2 11.89 8.79-15.11z" fill="url(#I)"/><path d="m166.33 151.07-5.59-1.49-11.98-3.2.02.08 15.18 8.67z" fill="url(#J)"/><path d="m155.17 170.24.02.09 8.76-8.78 4.09-4.09-4.08-2.33z" fill="url(#K)"/><path d="m166.33 151.07-2.37 4.06 4.08 2.33 4.67-4.68z" fill="url(#L)"/></g><path d="m245.5 215.28v-3.74" fill="none"/></svg>